<?xml version="1.0" encoding="utf-8"?>
<!-- Generator: Adobe Illustrator 27.1.1, SVG Export Plug-In . SVG Version: 6.00 Build 0)  -->
<svg version="1.1" xmlns="http://www.w3.org/2000/svg" xmlns:xlink="http://www.w3.org/1999/xlink" x="0px" y="0px"
	 viewBox="0 0 1039.8 200" style="enable-background:new 0 0 1039.8 200;" xml:space="preserve">
<style type="text/css">
	.st0{fill-rule:evenodd;clip-rule:evenodd;fill:#FFFFFF;}
	.st1{fill:#FFFFFF;}
	.st2{fill-rule:evenodd;clip-rule:evenodd;fill:#675E4E;}
	.st3{fill:#675E4E;}
	.st4{fill-rule:evenodd;clip-rule:evenodd;fill:#0C6F84;}
	.st5{fill:#0C6F84;}
	.st6{fill-rule:evenodd;clip-rule:evenodd;fill:#FF451C;}
	.st7{fill:#FF451C;}
	.st8{fill-rule:evenodd;clip-rule:evenodd;fill:#9413A9;}
	.st9{fill:#9413A9;}
	.st10{fill-rule:evenodd;clip-rule:evenodd;}
	.st11{fill:#010101;}
	.st12{display:none;}
	.st13{display:inline;opacity:0.5;}
	.st14{fill:#DB0000;}
	.st15{fill:#13D400;}
	.st16{fill:#5BFF0A;}
</style>
<g id="Artwork">
	<g>
		<path class="st7" d="M101.4,66.7c-2-3.5-6.5-4.7-9.9-2.7l-11.6,6.6c-3.5,2-4.7,6.4-2.7,9.9L94.8,111c8.2,14.2,3.3,32.3-10.9,40.5
			c-14.2,8.2-32.4,3.3-40.7-10.9l-17.6-30.4c-2-3.5-6.5-4.7-9.9-2.7l-12,6.9c-3.5,2-4.7,6.4-2.7,9.9l41.7,71.9
			c1.3,2.2,3.7,3.6,6.3,3.6l58.5,0.1c2.6,0,5-1.4,6.3-3.6l29.2-50.5c1.3-2.2,1.3-5,0-7.2L101.4,66.7z"/>
		<path class="st7" d="M116,3.7c-1.3-2.2-3.7-3.6-6.3-3.6L51.1,0c-2.6,0-5,1.4-6.3,3.6L15.6,54.2c-1.3,2.2-1.3,5,0,7.2l41.7,71.9
			c2,3.5,6.5,4.7,9.9,2.7l11.6-6.6c3.5-2,4.7-6.4,2.7-9.9L63.8,89c-8.2-14.2-3.3-32.3,10.9-40.5c14.2-8.2,32.4-3.3,40.7,10.9
			L133,89.7c2,3.5,6.5,4.7,9.9,2.7l12.1-6.9c3.5-2,4.7-6.4,2.7-9.9L116,3.7z"/>
		<path class="st6" d="M252.5,0c-2.7,0-5.3,1.5-6.6,3.9L193,96c-1.4,2.4-1.4,5.4,0,7.8l52.9,92.2c1.4,2.4,3.9,3.9,6.6,3.9h726.7
			c2.7,0,5.3-1.5,6.6-3.9l52.9-92.2c1.4-2.4,1.4-5.4,0-7.8L985.9,3.9C984.5,1.5,982,0,979.3,0H252.5z M872.3,154.2
			c-0.8,0-1.5-0.7-1.5-1.5v-41.5c0-0.3-0.1-0.6-0.3-0.9l-43.1-62c-0.7-1,0-2.4,1.3-2.4h35.3c0.5,0,1,0.2,1.3,0.6L887.4,77
			c0.6,0.9,1.9,0.8,2.5,0l20.9-30.6c0.3-0.4,0.8-0.7,1.3-0.7h34.9c1.2,0,2,1.4,1.3,2.4l-41.8,61.4c-0.2,0.3-0.3,0.6-0.3,0.9v42.1
			c0,0.9-0.7,1.5-1.5,1.5L872.3,154.2L872.3,154.2z M787.6,154.2c-0.9,0-1.5-0.7-1.5-1.5v-35.4c0-0.8-0.7-1.5-1.5-1.5h-35.8
			c-0.9,0-1.5,0.7-1.5,1.5v35.4c0,0.9-0.7,1.5-1.5,1.5h-30.7c-0.8,0-1.5-0.7-1.5-1.5V47.3c0-0.8,0.7-1.5,1.5-1.5h30.7
			c0.8,0,1.5,0.7,1.5,1.5v35.8c0,0.8,0.7,1.5,1.5,1.5h35.8c0.8,0,1.5-0.7,1.5-1.5V47.3c0-0.8,0.7-1.5,1.5-1.5h30.7
			c0.8,0,1.5,0.7,1.5,1.5v105.3c0,0.9-0.7,1.5-1.5,1.5H787.6z M562.6,154.2c-0.9,0-1.5-0.7-1.5-1.5V47.3c0-0.8,0.7-1.5,1.5-1.5h31.5
			c0.8,0,1.5,0.7,1.5,1.5v105.3c0,0.9-0.7,1.5-1.5,1.5H562.6z M401.7,154.2c-0.8,0-1.5-0.7-1.5-1.5V47.3c0-0.8,0.7-1.5,1.5-1.5
			h145.9c0.9,0,1.5,0.7,1.5,1.5v105.3c0,0.9-0.7,1.5-1.5,1.5h-30.1c-0.8,0-1.5-0.7-1.5-1.5V78.2c0-0.8-0.7-1.5-1.5-1.5h-21.6
			c-0.8,0-1.5,0.7-1.5,1.5v74.4c0,0.9-0.7,1.5-1.5,1.5h-30.1c-0.8,0-1.5-0.7-1.5-1.5V78.2c0-0.8-0.7-1.5-1.5-1.5h-21.6
			c-0.8,0-1.5,0.7-1.5,1.5v74.4c0,0.9-0.7,1.5-1.5,1.5H401.7z M284.2,152.6c0,0.8,0.7,1.5,1.5,1.5h66.5c22.7,0,37.2-14.5,37.2-34
			c0-19.5-13.1-33-35.8-34l-31.8-1.4c-3.9-0.2-6.2-0.9-6.2-4.3c0-2.9,2.3-3.9,6.2-3.9h64.9c0.8,0,1.5-0.7,1.5-1.5V47.3
			c0-0.8-0.7-1.5-1.5-1.5h-65.3c-22.7,0-38,14.4-38,34.1s13.9,32.9,36.1,33.7l31.8,1.2c3.4,0.2,5.6,0.9,5.6,4.1c0,2.9-2,4.4-5.6,4.4
			h-65.6c-0.8,0-1.5,0.7-1.5,1.5V152.6z M638.8,154.1c-0.9,0-1.5-0.7-1.5-1.5V78.4c0-0.9-0.7-1.5-1.5-1.5h-28.8
			c-0.9,0-1.5-0.7-1.5-1.5V47.4c0-0.9,0.7-1.5,1.5-1.5h95.3c0.9,0,1.5,0.7,1.5,1.5v27.9c0,0.9-0.7,1.5-1.5,1.5h-28.1
			c-0.9,0-1.5,0.7-1.5,1.5v74.2c0,0.9-0.7,1.5-1.5,1.5H638.8z"/>
	</g>
</g>
<g id="Guides" class="st12">
</g>
</svg>
