<svg width="187" height="44" viewBox="0 0 187 44" fill="none" xmlns="http://www.w3.org/2000/svg">
<path fill-rule="evenodd" clip-rule="evenodd" d="M13.427 0C12.8228 0 12.2652 0.324267 11.9643 0.851493L0.321 21.1403C0.0153958 21.6722 0.0153958 22.3278 0.321 22.8597L11.9643 43.1485C12.2676 43.6757 12.8251 44 13.427 44H173.386C173.99 44 174.548 43.6757 174.849 43.1485L186.492 22.8597C186.798 22.3278 186.798 21.6722 186.492 21.1403L174.849 0.851493C174.546 0.324267 173.988 0 173.386 0H13.427ZM149.843 33.9314C149.656 33.9314 149.502 33.7798 149.502 33.5908V24.453C149.502 24.383 149.481 24.3154 149.442 24.2594L139.949 10.6052C139.793 10.3789 139.954 10.0709 140.227 10.0709H148.002C148.112 10.0709 148.212 10.1246 148.278 10.2109L153.16 16.9529C153.298 17.1442 153.583 17.1395 153.716 16.9435L158.307 10.2179C158.37 10.1269 158.475 10.0709 158.587 10.0709H166.262C166.535 10.0709 166.696 10.3765 166.542 10.6005L157.343 24.1241C157.304 24.1801 157.283 24.2454 157.283 24.3154V33.5908C157.283 33.7798 157.129 33.9314 156.942 33.9314H149.838H149.841H149.843ZM131.194 33.9314C131.008 33.9314 130.854 33.7798 130.854 33.5908V25.8084C130.854 25.6218 130.7 25.4678 130.513 25.4678H122.628C122.439 25.4678 122.287 25.6218 122.287 25.8084V33.5908C122.287 33.7798 122.133 33.9314 121.947 33.9314H115.184C114.997 33.9314 114.843 33.7798 114.843 33.5908V10.4115C114.843 10.2249 114.997 10.0709 115.184 10.0709H121.947C122.133 10.0709 122.287 10.2249 122.287 10.4115V18.2966C122.287 18.4832 122.439 18.6372 122.628 18.6372H130.513C130.7 18.6372 130.854 18.4832 130.854 18.2966V10.4115C130.854 10.2249 131.008 10.0709 131.194 10.0709H137.957C138.144 10.0709 138.298 10.2249 138.298 10.4115V33.5931C138.298 33.7821 138.144 33.9337 137.957 33.9337H131.194V33.9314ZM81.6794 33.9314C81.4904 33.9314 81.3388 33.7798 81.3388 33.5908V10.4115C81.3388 10.2249 81.4927 10.0709 81.6794 10.0709H88.6126C88.7992 10.0709 88.9532 10.2249 88.9532 10.4115V33.5931C88.9532 33.7821 88.7992 33.9337 88.6126 33.9337H81.6794V33.9314ZM46.2619 33.9314C46.0753 33.9314 45.9213 33.7798 45.9213 33.5908V10.4115C45.9213 10.2249 46.0753 10.0709 46.2619 10.0709H78.383C78.572 10.0709 78.7236 10.2249 78.7236 10.4115V33.5931C78.7236 33.7821 78.572 33.9337 78.383 33.9337H71.7554C71.5688 33.9337 71.4148 33.7821 71.4148 33.5931V17.2095C71.4148 17.0229 71.2632 16.8689 71.0742 16.8689H66.3152C66.1285 16.8689 65.9746 17.0229 65.9746 17.2095V33.5931C65.9746 33.7821 65.8229 33.9337 65.634 33.9337H59.0063C58.8197 33.9337 58.6657 33.7821 58.6657 33.5931V17.2095C58.6657 17.0229 58.5141 16.8689 58.3251 16.8689H53.5661C53.3795 16.8689 53.2255 17.0229 53.2255 17.2095V33.5931C53.2255 33.7821 53.0739 33.9337 52.8849 33.9337H46.2573L46.2619 33.9314ZM20.3952 33.5908C20.3952 33.7774 20.5492 33.9314 20.7358 33.9314H35.3745C40.3715 33.9314 43.5652 30.7354 43.5652 26.4546C43.5652 22.1738 40.6771 19.1807 35.6801 18.9778L28.6792 18.6722C27.83 18.6372 27.3098 18.4692 27.3098 17.7227C27.3098 17.0765 27.8207 16.8712 28.6699 16.8712H42.947C43.1336 16.8712 43.2875 16.7172 43.2875 16.5306V10.4115C43.2875 10.2249 43.1359 10.0709 42.947 10.0709H28.5789C23.5819 10.0709 20.2179 13.232 20.2179 17.5827C20.2179 21.9335 23.2763 24.8216 28.1706 24.9919L35.1715 25.2648C35.9204 25.2998 36.3963 25.4538 36.3963 26.1676C36.3963 26.8138 35.9554 27.1358 35.1715 27.1358H20.7382C20.5515 27.1358 20.3976 27.2898 20.3976 27.4764V33.5955L20.3952 33.5908ZM98.4573 33.9174C98.2706 33.9174 98.1167 33.7658 98.1167 33.5768V17.2445C98.1167 17.0578 97.965 16.9039 97.7761 16.9039H91.426C91.2394 16.9039 91.0854 16.7522 91.0854 16.5633V10.4185C91.0854 10.2319 91.2371 10.0779 91.426 10.0779H112.408C112.594 10.0779 112.748 10.2296 112.748 10.4185V16.5633C112.748 16.7499 112.597 16.9039 112.408 16.9039H106.228C106.041 16.9039 105.887 17.0555 105.887 17.2445V33.5768C105.887 33.7634 105.736 33.9174 105.547 33.9174H98.4503H98.4573Z" fill="#F65F1E"/>
</svg>
