<?xml version="1.0" encoding="utf-8"?>
<!-- Generator: Adobe Illustrator 24.1.1, SVG Export Plug-In . SVG Version: 6.00 Build 0)  -->
<svg version="1.1" id="Layer_1" xmlns="http://www.w3.org/2000/svg" xmlns:xlink="http://www.w3.org/1999/xlink" x="0px" y="0px"
	 viewBox="0 0 512 512" style="enable-background:new 0 0 512 512;" xml:space="preserve">
<style type="text/css">
	.st0{fill-rule:evenodd;clip-rule:evenodd;}
</style>
<g>
	<path class="st0" d="M464,96H48c-8.8,0-16,7.2-16,16v288c0,8.8,7.2,16,16,16h416c8.8,0,16-7.2,16-16V112C480,103.2,472.8,96,464,96
		z M48,64C21.5,64,0,85.5,0,112v288c0,26.5,21.5,48,48,48h416c26.5,0,48-21.5,48-48V112c0-26.5-21.5-48-48-48H48z"/>
	<path class="st0" d="M224,176c0-8.8,7.2-16,16-16h160c8.8,0,16,7.2,16,16s-7.2,16-16,16H240C231.2,192,224,184.8,224,176z
		 M176.1,148.7c6.3,6.3,6.3,16.4,0,22.6l0,0l-48,48c-6.2,6.3-16.4,6.3-22.6,0l0,0l-16-16c-6.3-6.3-6.3-16.4,0-22.7
		c6.3-6.3,16.4-6.3,22.6,0l4.7,4.7l36.7-36.7C159.7,142.4,169.8,142.4,176.1,148.7L176.1,148.7z M224,304c0-8.8,7.2-16,16-16h160
		c8.8,0,16,7.2,16,16s-7.2,16-16,16H240C231.2,320,224,312.8,224,304z M176.1,276.7c6.3,6.3,6.3,16.4,0,22.6l0,0l-48,48
		c-6.2,6.3-16.4,6.3-22.6,0l0,0l-16-16c-6.3-6.3-6.3-16.4,0-22.7c6.3-6.3,16.4-6.3,22.6,0l4.7,4.7l36.7-36.7
		C159.7,270.4,169.8,270.4,176.1,276.7L176.1,276.7z"/>
</g>
</svg>
