<?xml version="1.0" encoding="UTF-8"?>
<svg xmlns="http://www.w3.org/2000/svg" width="356" height="197" viewBox="0 0 356 197" fill="none">
  <path d="M211.144 154.54H197.385V196.296H211.144C224.303 196.296 232.481 188.277 232.481 175.418C232.481 162.559 224.303 154.54 211.144 154.54ZM228.164 175.418C228.164 186.031 221.651 192.349 210.736 192.349H201.586V158.469H210.732C221.647 158.469 228.159 164.805 228.159 175.418H228.164ZM268.505 181.059C268.505 188.045 263.896 192.38 256.479 192.38C249.062 192.38 244.516 188.085 244.516 181.17V154.531H240.315V181.264C240.315 190.246 246.836 196.283 256.542 196.283C266.248 196.283 272.711 190.246 272.711 181.264V154.531H268.51L268.505 181.059ZM313.218 187.831C309.615 191.19 304.854 193.047 299.916 193.017C290.147 193.017 282.779 185.327 282.779 175.133C282.779 165.264 290.071 157.823 299.736 157.823C307.498 157.823 312.21 162.092 312.277 162.132L312.936 162.742L315.484 159.646L314.974 159.124C314.763 158.906 309.679 153.822 299.683 153.822C287.59 153.822 278.462 162.978 278.462 175.124C278.462 187.599 287.684 197 299.916 197C310.159 197 315.811 190.901 316.04 190.642L316.537 190.094L313.849 187.154L313.218 187.831ZM334.184 174.344L354.979 154.531H349.524L330.551 172.419H327.962V154.531H323.761V196.305H327.962V176.354H330.533L350.33 196.305H355.705L334.184 174.344Z" fill="#00ADEE"></path>
  <path d="M0 154.526H17.0197C25.453 154.526 31.3541 158.264 31.3541 165.454C31.3541 168.96 29.6405 172.52 26.4605 174.333V174.449C31.2957 175.91 33.0678 180.174 33.0678 183.854C33.0678 192.969 25.4215 196.296 17.0242 196.296H0V154.526ZM17.1366 170.711C19.7318 170.711 20.8518 168.84 20.8518 166.853C20.8518 164.866 19.7318 163.289 16.9567 163.289H10.3224V170.711H17.1366ZM18.0362 187.533C21.0452 187.533 22.534 185.489 22.534 183.154C22.534 180.82 21.1172 178.891 18.1126 178.891H10.3224V187.533H18.0362ZM38.3122 154.526H48.6347V187.533H65.8567V196.296H38.3122V154.526ZM96.028 187.533H82.8719L80.3352 196.296H69.7159L84.0548 154.526H94.9035L109.238 196.296H98.6232L96.028 187.533ZM89.4207 164.047C89.4207 164.047 88.4762 168.604 87.707 171.224L85.2872 179.345H93.6037L91.2468 171.224C90.4822 168.595 89.5377 164.038 89.5377 164.038L89.4207 164.047ZM132.618 153.822C143.057 153.822 148.427 159.725 148.427 159.725L143.651 167.437C143.651 167.437 138.932 163.173 133.094 163.173C124.998 163.173 121.18 169.072 121.18 175.091C121.18 181.283 125.309 187.649 133.094 187.649C139.463 187.649 144.298 182.508 144.298 182.508L149.606 189.988C149.606 189.988 143.651 197 132.618 197C119.408 197 110.502 187.712 110.502 175.327C110.502 163.173 119.938 153.822 132.618 153.822ZM155.853 154.526H166.176V170.653H167.601L178.446 154.526H189.537L176.044 174.507V174.623L190.189 196.296H178.63L167.61 179.367H166.185V196.296H155.853V154.526Z" fill="black"></path>
  <path d="M229.247 6.8181C228.425 12.3144 228.227 16.94 226.99 21.2572C223.651 32.9753 223.488 32.8756 234.698 36.3312C236.142 36.7756 238.471 38.0544 238.426 38.8344C238.345 40.3128 237.135 42.1086 235.862 43.0609C228.01 48.9835 220.104 54.7247 217.504 65.1368C215.771 72.0751 216.683 75.0591 222.811 78.7868C229.887 83.0859 237.081 87.1128 241.946 94.2598C250.439 106.749 250.376 126.312 241.801 136.316C238.633 140.008 234.888 141.894 230.122 142.23C193.595 144.788 157.105 144.506 120.641 141.033C115.162 140.507 111.67 137.16 108.673 133.042C100.306 121.542 97.6888 108.028 95.8475 94.3777C95.1165 88.9268 95.2518 83.24 95.8746 77.7619C96.5245 71.9845 99.882 70.2975 105.234 72.8189C109.278 74.7235 113.05 77.3084 116.733 79.9024C122.257 83.7933 128.349 84.7728 134.784 83.757C143.81 82.3331 152.682 79.8752 162.006 81.9612C165.174 82.6686 167.385 78.7051 165.625 75.6396C164.623 73.8982 162.908 72.4651 161.256 71.2317C142.095 56.8742 140.136 21.5746 157.754 7.01764C170.255 -3.30377 186.438 -2.15191 197.837 9.89276C199.291 11.4255 200.635 13.0581 202.098 14.5728C206.8 19.4342 209.869 19.8332 215.492 15.8788C219.048 13.3846 222.306 10.4642 225.745 7.78857C226.169 7.45299 226.855 7.46206 229.256 6.82717L229.247 6.8181Z" fill="black"></path>
</svg>
