<?xml version="1.0" encoding="UTF-8"?>
<svg version="1.1" xmlns="http://www.w3.org/2000/svg" width="486" height="312">
<path d="M0 0 C59.73 0 119.46 0 181 0 C181 1.32 181 2.64 181 4 C193.21 4 205.42 4 218 4 C218 2.68 218 1.36 218 0 C232.52 0 247.04 0 262 0 C262 1.32 262 2.64 262 4 C262.72703125 3.95359375 263.4540625 3.9071875 264.203125 3.859375 C276.35521186 3.42314624 285.27952709 6.8716532 295 14 C295.33 9.38 295.66 4.76 296 0 C301.28 0 306.56 0 312 0 C312 10.56 312 21.12 312 32 C311.34 32 310.68 32 310 32 C310.28274529 32.61622726 310.56549057 33.23245453 310.85680389 33.86735535 C315.00333646 44.26579654 314.5640638 54.51492234 314.51757812 65.55078125 C314.52300575 67.72025012 314.53013199 69.88971531 314.53881836 72.05917358 C314.55697829 77.92281085 314.55001442 83.78616507 314.53730202 89.64980698 C314.52713632 95.80210858 314.53657759 101.95438684 314.54284668 108.10668945 C314.55011269 118.43607916 314.5405628 128.76535427 314.52148438 139.09472656 C314.49971776 151.01679704 314.50676986 162.93859384 314.52879 174.86065769 C314.54697376 185.11835088 314.54948775 195.37596193 314.53903532 205.63366604 C314.53281678 211.75066548 314.5319196 217.86753652 314.54518127 223.98452759 C314.55678245 229.7368506 314.54863602 235.48882262 314.52560425 241.24110794 C314.52033994 243.34529667 314.52179161 245.44951522 314.53065491 247.55369186 C314.5720569 258.38586646 314.60005264 267.97444695 310 278 C311.65 278.33 313.3 278.66 315 279 C315 289.56 315 300.12 315 311 C307.08 311 299.16 311 291 311 C290.67 307.37 290.34 303.74 290 300 C289.18015625 300.34933594 288.3603125 300.69867188 287.515625 301.05859375 C286.43796875 301.51363281 285.3603125 301.96867187 284.25 302.4375 C283.18265625 302.88996094 282.1153125 303.34242188 281.015625 303.80859375 C277.18802402 305.32079362 274.0056911 306.12883099 269.890625 306.09765625 C269.13652344 306.09443359 268.38242187 306.09121094 267.60546875 306.08789062 C266.82816406 306.07951172 266.05085938 306.07113281 265.25 306.0625 C264.45722656 306.05798828 263.66445313 306.05347656 262.84765625 306.04882812 C260.89840492 306.03708565 258.94919262 306.01915146 257 306 C257 307.65 257 309.3 257 311 C242.15 311 227.3 311 212 311 C212 309.35 212 307.7 212 306 C201.77 306 191.54 306 181 306 C181 307.65 181 309.3 181 311 C121.27 311 61.54 311 0 311 C-0.33 300.44 -0.66 289.88 -1 279 C2.63 275.37 6.26 271.74 10 268 C10 260.74 10 253.48 10 246 C-13.76 246 -37.52 246 -62 246 C-62 238.74 -62 231.48 -62 224 C-84.44 224 -106.88 224 -130 224 C-130 215.75 -130 207.5 -130 199 C-83.8 199 -37.6 199 10 199 C10 192.07 10 185.14 10 178 C-34.88 178 -79.76 178 -126 178 C-126 173.38 -126 168.76 -126 164 C-140.52 164 -155.04 164 -170 164 C-170 152.45 -170 140.9 -170 129 C-110.6 129 -51.2 129 10 129 C10 122.4 10 115.8 10 109 C-26.96 109 -63.92 109 -102 109 C-102 100.42 -102 91.84 -102 83 C-84.51 83 -67.02 83 -49 83 C-49 77.39 -49 71.78 -49 66 C-29.53 66 -10.06 66 10 66 C10 58.74 10 51.48 10 44 C10.66 41.36 11.32 38.72 12 36 C11.14535156 35.81824219 10.29070312 35.63648438 9.41015625 35.44921875 C8.30542969 35.19785156 7.20070312 34.94648437 6.0625 34.6875 C4.96035156 34.44386719 3.85820312 34.20023438 2.72265625 33.94921875 C1.82417969 33.63597656 0.92570313 33.32273438 0 33 C-3.47850543 22.56448372 -0.36646313 10.99389398 0 0 Z " fill="#212934" transform="translate(171,1)"/>
<path d="M0 0 C59.4 0 118.8 0 180 0 C180 1.65 180 3.3 180 5 C189.9 5 199.8 5 210 5 C210 19.52 210 34.04 210 49 C155.22 49 100.44 49 44 49 C44 44.38 44 39.76 44 35 C29.48 35 14.96 35 0 35 C0 23.45 0 11.9 0 0 Z " fill="#CCA004" transform="translate(1,130)"/>
<path d="M0 0 C46.2 0 92.4 0 140 0 C140 4.95 140 9.9 140 15 C175.97 15 211.94 15 249 15 C249 25.56 249 36.12 249 47 C189.27 47 129.54 47 68 47 C68 39.74 68 32.48 68 25 C45.56 25 23.12 25 0 25 C0 16.75 0 8.5 0 0 Z " fill="#E75742" transform="translate(41,200)"/>
<path d="M0 0 C45.54 0 91.08 0 138 0 C138 10.56 138 21.12 138 32 C111.93 32 85.86 32 59 32 C59 35.63 59 39.26 59 43 C22.04 43 -14.92 43 -53 43 C-53 34.42 -53 25.84 -53 17 C-35.51 17 -18.02 17 0 17 C0 11.39 0 5.78 0 0 Z " fill="#6A9F00" transform="translate(122,67)"/>
<path d="M0 0 C0.66 0 1.32 0 2 0 C3.32 3.3 4.64 6.6 6 10 C87.675 10.495 87.675 10.495 171 11 C171 21.56 171 32.12 171 43 C111.27 43 51.54 43 -10 43 C-10.33 32.44 -10.66 21.88 -11 11 C-7.37 7.37 -3.74 3.74 0 0 Z " fill="#4681BF" transform="translate(181,269)"/>
<path d="M0 0 C59.73 0 119.46 0 181 0 C181 10.56 181 21.12 181 32 C175.98707764 32.01458252 170.97415527 32.02916504 165.80932617 32.04418945 C149.28092105 32.09443647 132.75261057 32.16086208 116.22429943 32.23571491 C106.19926694 32.28071812 96.17427033 32.32012227 86.14916992 32.34643555 C77.41329103 32.36937906 68.67752527 32.40273602 59.94173604 32.44870156 C55.31437795 32.47268314 50.68713223 32.49137949 46.05971336 32.49761391 C41.70699844 32.50364254 37.35457126 32.52356129 33.00196266 32.55427551 C31.40197367 32.56309154 29.80194713 32.56677099 28.20193481 32.56500816 C26.02187583 32.56336419 23.84270325 32.57997781 21.6627655 32.60127258 C19.83070195 32.60818603 19.83070195 32.60818603 17.96162701 32.61523914 C14.6824879 33.0412497 14.08026392 33.5983954 12 36 C9.1171875 35.7421875 9.1171875 35.7421875 5.875 34.875 C4.79992187 34.60429688 3.72484375 34.33359375 2.6171875 34.0546875 C1.32167969 33.53261719 1.32167969 33.53261719 0 33 C-3.47850543 22.56448372 -0.36646313 10.99389398 0 0 Z " fill="#2D8950" transform="translate(171,1)"/>
<path d="M0 0 C26.07 0 52.14 0 79 0 C79 14.52 79 29.04 79 44 C52.93 44 26.86 44 0 44 C0 29.48 0 14.96 0 0 Z " fill="#CCA004" transform="translate(231,135)"/>
<path d="M0 0 C46.2 0 92.4 0 140 0 C140 4.95 140 9.9 140 15 C116.24 15 92.48 15 68 15 C68 18.3 68 21.6 68 25 C45.56 25 23.12 25 0 25 C0 16.75 0 8.5 0 0 Z " fill="#C55A11" transform="translate(41,200)"/>
<path d="M0 0 C59.4 0 118.8 0 180 0 C180 1.65 180 3.3 180 5 C135.12 5 90.24 5 44 5 C44 14.9 44 24.8 44 35 C29.48 35 14.96 35 0 35 C0 23.45 0 11.9 0 0 Z " fill="#7F6000" transform="translate(1,130)"/>
<path d="M0 0 C17.49 0 34.98 0 53 0 C53 4.95 53 9.9 53 15 C72.47 15 91.94 15 112 15 C112 18.63 112 22.26 112 26 C75.04 26 38.08 26 0 26 C0 17.42 0 8.84 0 0 Z " fill="#548235" transform="translate(69,84)"/>
<path d="M0 0 C20.79 0 41.58 0 63 0 C63 10.56 63 21.12 63 32 C42.21 32 21.42 32 0 32 C0 21.44 0 10.88 0 0 Z " fill="#6A9F00" transform="translate(276,67)"/>
<path d="M0 0 C14.85 0 29.7 0 45 0 C45 10.56 45 21.12 45 32 C30.15 32 15.3 32 0 32 C0 21.44 0 10.88 0 0 Z " fill="#4681C0" transform="translate(383,280)"/>
<path d="M0 0 C14.85 0 29.7 0 45 0 C45 10.56 45 21.12 45 32 C30.15 32 15.3 32 0 32 C0 21.44 0 10.88 0 0 Z " fill="#E75742" transform="translate(351,215)"/>
<path d="M0 0 C14.52 0 29.04 0 44 0 C44 10.56 44 21.12 44 32 C29.48 32 14.96 32 0 32 C0 21.44 0 10.88 0 0 Z " fill="#2E8951" transform="translate(389,1)"/>
<path d="M0 0 C10.23 0 20.46 0 31 0 C31 10.56 31 21.12 31 32 C20.77 32 10.54 32 0 32 C0 21.44 0 10.88 0 0 Z " fill="#6A9F00" transform="translate(361,67)"/>
<path d="M0 0 C7.92 0 15.84 0 24 0 C24 10.56 24 21.12 24 32 C16.08 32 8.16 32 0 32 C0 21.44 0 10.88 0 0 Z " fill="#4681C0" transform="translate(462,280)"/>
<path d="M0 0 C4.62 0 9.24 0 14 0 C14 14.52 14 29.04 14 44 C9.38 44 4.76 44 0 44 C0 29.48 0 14.96 0 0 Z " fill="#CCA004" transform="translate(334,135)"/>
<path d="M0 0 C5.28 0 10.56 0 16 0 C16 10.56 16 21.12 16 32 C10.72 32 5.44 32 0 32 C0 21.44 0 10.88 0 0 Z " fill="#2E8951" transform="translate(467,1)"/>
<path d="M0 0 C4.95 0 9.9 0 15 0 C15 10.56 15 21.12 15 32 C10.05 32 5.1 32 0 32 C0 21.44 0 10.88 0 0 Z " fill="#E75742" transform="translate(311,215)"/>
<path d="M0 0 C0.50615298 1.26839526 1.00469099 2.53983102 1.5 3.8125 C1.7784375 4.52019531 2.056875 5.22789062 2.34375 5.95703125 C3 8 3 8 3 11 C-1.95 11 -6.9 11 -12 11 C-2.69230769 0 -2.69230769 0 0 0 Z " fill="#8CA7D8" transform="translate(183,269)"/>
<path d="M0 0 C4.95 0 9.9 0 15 0 C14.34 1.32 13.68 2.64 13 4 C8.71 3.01 4.42 2.02 0 1 C0 0.67 0 0.34 0 0 Z " fill="#00A94B" transform="translate(171,33)"/>
</svg>
