<?xml version="1.0" encoding="UTF-8" standalone="no"?>
<!-- Created with Inkscape (http://www.inkscape.org/) -->

<svg
   width="10.502424mm"
   height="16.582575mm"
   viewBox="0 0 10.502424 16.582575"
   version="1.1"
   id="svg255"
   inkscape:version="1.1.2 (0a00cf5339, 2022-02-04)"
   sodipodi:docname="dependency-track.svg"
   xmlns:inkscape="http://www.inkscape.org/namespaces/inkscape"
   xmlns:sodipodi="http://sodipodi.sourceforge.net/DTD/sodipodi-0.dtd"
   xmlns="http://www.w3.org/2000/svg"
   xmlns:svg="http://www.w3.org/2000/svg">
  <sodipodi:namedview
     id="namedview257"
     pagecolor="#ffffff"
     bordercolor="#666666"
     borderopacity="1.0"
     inkscape:pageshadow="2"
     inkscape:pageopacity="0.0"
     inkscape:pagecheckerboard="0"
     inkscape:document-units="mm"
     showgrid="false"
     fit-margin-top="0"
     fit-margin-left="0"
     fit-margin-right="0"
     fit-margin-bottom="0"
     inkscape:zoom="3.1108586"
     inkscape:cx="-196.24807"
     inkscape:cy="11.411641"
     inkscape:window-width="3440"
     inkscape:window-height="1330"
     inkscape:window-x="0"
     inkscape:window-y="0"
     inkscape:window-maximized="1"
     inkscape:current-layer="layer1" />
  <defs
     id="defs252" />
  <g
     inkscape:label="Layer 1"
     inkscape:groupmode="layer"
     id="layer1"
     transform="translate(-7.8281172,-11.584195)">
    <g
       transform="matrix(0.26458333,0,0,0.26458333,12.691688,13.284672)"
       id="g32"
       style="clip-rule:evenodd;fill-rule:evenodd;stroke-linejoin:round;stroke-miterlimit:2">
      <path
         d="m 0,7.701 c 0,2.346 -1.909,4.254 -4.254,4.254 h -7.701 c -2.345,0 -4.254,-1.908 -4.254,-4.254 v -7.7 c 0,-2.346 1.909,-4.254 4.254,-4.254 h 7.701 C -1.909,-4.253 0,-2.345 0,0.001 Z M -3.895,-6.427 h -8.419 c -3.351,0 -6.068,2.717 -6.068,6.068 v 8.42 c 0,3.351 2.717,6.067 6.068,6.067 h 8.419 c 3.352,0 6.068,-2.716 6.068,-6.067 v -8.42 c 0,-3.351 -2.716,-6.068 -6.068,-6.068"
         style="fill:#ff00cf;fill-rule:nonzero"
         id="path30" />
    </g>
    <g
       transform="matrix(0.26458333,0,0,0.26458333,17.755602,18.999751)"
       id="g36"
       style="clip-rule:evenodd;fill-rule:evenodd;stroke-linejoin:round;stroke-miterlimit:2">
      <path
         d="m 0,7.701 c 0,2.346 -1.909,4.254 -4.254,4.254 h -7.701 c -2.345,0 -4.254,-1.908 -4.254,-4.254 v -7.7 c 0,-2.346 1.909,-4.254 4.254,-4.254 h 7.701 C -1.909,-4.253 0,-2.345 0,0.001 Z M -3.895,-6.427 h -8.419 c -3.351,0 -6.068,2.717 -6.068,6.068 v 8.42 c 0,3.351 2.717,6.067 6.068,6.067 h 8.419 c 3.352,0 6.068,-2.716 6.068,-6.067 v -8.42 c 0,-3.351 -2.716,-6.068 -6.068,-6.068"
         style="fill:#ff00cf;fill-rule:nonzero"
         id="path34" />
    </g>
    <g
       transform="matrix(0.26458333,0,0,0.26458333,12.691688,24.428737)"
       id="g40"
       style="clip-rule:evenodd;fill-rule:evenodd;stroke-linejoin:round;stroke-miterlimit:2">
      <path
         d="m 0,7.701 c 0,2.346 -1.909,4.254 -4.254,4.254 h -7.701 c -2.345,0 -4.254,-1.908 -4.254,-4.254 v -7.7 c 0,-2.346 1.909,-4.254 4.254,-4.254 h 7.701 C -1.909,-4.253 0,-2.345 0,0.001 Z M -3.895,-6.427 h -8.419 c -3.351,0 -6.068,2.717 -6.068,6.068 v 8.42 c 0,3.351 2.717,6.067 6.068,6.067 h 8.419 c 3.352,0 6.068,-2.716 6.068,-6.067 v -8.42 c 0,-3.351 -2.716,-6.068 -6.068,-6.068"
         style="fill:#ff00cf;fill-rule:nonzero"
         id="path38" />
    </g>
  </g>
</svg>
