<svg width="39" height="41" viewBox="0 0 39 41" fill="none" xmlns="http://www.w3.org/2000/svg">
<path d="M18.7936 23.5691C16.5836 22.6738 15.2772 20.7593 15.3468 18.7265L10.6227 16.2705C10.2703 18.6235 10.8333 21.0847 12.251 23.2173C13.7601 25.4873 15.9394 27.178 18.7938 28.1569V23.5691H18.7936Z" fill="#1904DA"/>
<path d="M18.794 33.9723V28.6996C15.7369 27.6944 13.395 25.885 11.7878 23.4674C10.2676 21.1806 9.68903 18.53 10.1199 16.0093L5.72894 13.7266C3.21349 21.9917 8.85746 30.7947 18.794 33.9723Z" fill="#1904DA"/>
<path d="M19.4424 28.6515V33.9723C29.1952 30.721 35.0495 21.9334 32.5767 13.7539L28.2096 16.0444C28.7546 18.7632 28.2793 21.4137 26.8185 23.6311C25.3176 25.9095 22.6967 27.6192 19.4424 28.6515Z" fill="#08B1D5"/>
<path d="M23.0026 18.7491C23.0222 20.723 21.7336 22.4597 19.4424 23.569V28.1567C22.4873 27.1574 24.9468 25.5185 26.3539 23.3825C27.7164 21.3145 28.1798 18.8469 27.7124 16.3047L23.0026 18.7491Z" fill="#08B1D5"/>
<path d="M23.6805 11.696C25.5227 12.5047 27.023 13.8002 28.0194 15.4423C28.0326 15.4639 28.0449 15.4864 28.0577 15.5082L32.3414 13.2813C32.2733 13.204 32.2078 13.1259 32.154 13.0476C30.5827 10.7592 28.5065 9.03745 25.9835 7.92949C18.861 4.80249 10.1332 7.16025 5.96338 13.2896L10.2367 15.5102C13.1382 11.3105 18.9789 9.63188 23.6805 11.696Z" fill="#FFC900"/>
<path d="M21.0065 16.5907C21.769 16.9256 22.3874 17.4662 22.7948 18.1539C22.8086 18.1772 22.8207 18.2016 22.8337 18.2252L27.5907 15.7521C27.5758 15.7268 27.5615 15.7011 27.5463 15.6761C26.604 14.1229 25.1856 12.8977 23.4447 12.1335C18.997 10.1805 13.4651 11.7735 10.7056 15.754L15.4367 18.2125C16.6696 16.4322 19.0553 15.7341 21.0065 16.5907Z" fill="#FFC900"/>
<path d="M38.1 10.8564L33.0587 13.5005C35.7177 22.0116 29.6201 31.1847 19.4424 34.4886V40.2507L38.0998 30.4613V10.8564H38.1Z" fill="#08B1D5"/>
<path d="M0.200195 10.8506V30.456L18.7958 40.2506V34.4885C8.43284 31.2628 2.54728 22.0728 5.24819 13.4749L0.436804 10.9735L0.200195 10.8506Z" fill="#1904DA"/>
<path d="M0.468262 10.4322L1.01762 10.7178L5.49901 13.0466C9.81029 6.69773 18.8479 4.25472 26.2238 7.49273C28.8401 8.64148 30.9911 10.4243 32.617 12.7919C32.6684 12.8667 32.7403 12.9491 32.818 13.0355L37.8299 10.4299L19.1511 0.71875L0.468262 10.4322Z" fill="#FFC900"/>
<path d="M19.4202 23.036C21.2587 22.1103 22.3625 20.6285 22.4333 18.9847C22.4333 18.9847 22.4414 18.8216 22.4277 18.5572C22.4249 18.5029 22.0201 17.6357 20.7864 17.0301C19.1299 16.2168 16.7791 16.9992 15.8376 18.5572C15.8376 18.5572 15.8149 18.7483 15.8256 18.9847C15.8931 20.4786 16.9156 22.2328 18.7259 23.036L19.093 23.1937L19.4202 23.036Z" fill="#FF445F"/>
</svg>
