<svg id="svg" version="1.1" xmlns="http://www.w3.org/2000/svg" xmlns:xlink="http://www.w3.org/1999/xlink" width="400" height="400" viewBox="0, 0, 400,400"><g id="svgg"><path id="path0" d="M48.137 77.503 C 35.850 83.764,33.437 91.844,31.711 132.508 C 29.996 172.902,27.760 180.788,16.543 186.000 C 10.414 188.848,10.087 189.558,10.087 200.000 C 10.087 210.442,10.414 211.152,16.543 214.000 C 27.760 219.212,29.996 227.098,31.711 267.492 C 33.756 315.671,39.362 325.988,63.500 325.997 L 72.000 326.000 72.000 315.256 L 72.000 304.511 64.335 303.285 C 54.129 301.654,52.004 296.511,51.985 273.406 C 51.953 234.213,47.640 215.036,36.547 204.755 L 31.480 200.060 38.633 192.143 C 48.003 181.771,49.616 174.865,51.049 139.000 C 52.659 98.708,53.733 96.000,68.094 96.000 C 71.495 96.000,72.000 94.578,72.000 85.000 L 72.000 74.000 63.500 74.003 C 58.825 74.005,51.912 75.580,48.137 77.503 M324.000 84.760 C 324.000 95.820,324.093 96.000,329.778 96.000 C 343.383 96.000,344.871 99.841,346.177 138.322 C 347.474 176.557,349.837 186.142,360.097 194.775 L 365.753 199.534 360.605 204.267 C 349.882 214.124,347.371 223.983,346.090 261.246 C 344.777 299.427,344.140 301.291,331.740 303.274 L 324.000 304.511 324.000 315.496 L 324.000 326.481 336.002 325.613 C 359.232 323.932,363.746 314.577,365.802 263.847 C 367.418 223.977,369.703 216.622,381.575 213.086 C 391.526 210.123,391.526 189.877,381.575 186.914 C 369.656 183.364,367.495 176.238,365.898 135.223 C 363.949 85.166,359.482 76.086,335.973 74.385 L 324.000 73.519 324.000 84.760 M178.923 81.654 C 163.777 88.727,150.048 108.598,150.011 123.500 L 150.000 128.000 200.260 128.000 L 250.520 128.000 249.496 118.917 C 246.070 88.514,207.660 68.234,178.923 81.654 M92.400 120.400 C 86.685 126.115,89.770 132.871,105.000 148.000 L 120.000 162.900 120.000 185.450 L 120.000 208.000 100.310 208.000 C 79.830 208.000,74.000 210.293,74.000 218.348 C 74.000 225.608,80.606 228.000,100.657 228.000 L 120.000 228.000 120.000 235.580 C 120.000 242.257,123.623 259.428,126.840 268.000 C 127.548 269.884,122.678 276.951,113.750 287.000 C 94.149 309.059,92.935 311.073,95.648 317.027 C 100.818 328.372,107.388 326.157,124.903 307.165 L 141.012 289.697 152.924 296.870 C 165.549 304.472,175.484 307.971,184.500 307.989 L 190.000 308.000 190.000 238.000 L 190.000 168.000 200.000 168.000 L 210.000 168.000 210.000 238.279 L 210.000 308.557 219.831 307.393 C 229.524 306.245,252.422 296.171,255.067 291.891 C 255.887 290.564,263.374 296.492,273.955 306.846 C 292.028 324.531,296.850 326.796,302.690 320.343 C 308.634 313.774,306.436 309.350,288.219 291.218 L 270.438 273.519 274.519 264.292 C 276.764 259.217,279.037 248.975,279.569 241.532 L 280.537 228.000 301.312 228.000 C 324.729 228.000,329.719 224.753,324.364 213.000 C 322.144 208.128,321.548 208.000,301.043 208.000 L 280.000 208.000 280.000 185.450 L 280.000 162.900 295.000 148.000 C 310.230 132.871,313.315 126.115,307.600 120.400 C 301.885 114.685,295.129 117.770,280.000 133.000 L 265.100 148.000 200.000 148.000 L 134.900 148.000 120.000 133.000 C 104.871 117.770,98.115 114.685,92.400 120.400 " stroke="none" fill="#000000" fill-rule="evenodd"></path></g></svg>