<svg width="123" height="200" viewBox="0 0 123 200" fill="none" xmlns="http://www.w3.org/2000/svg">
    <path d="M42.7756 17.7971C40.6024 15.5755 37.5849 14.2074 34.2236 14.2074C30.8699 14.2074 27.8771 15.5755 25.7311 17.7971H25.6749C23.5084 20.0018 22.1638 23.0791 22.1638 26.4794C22.1638 29.8999 23.5084 32.9578 25.6749 35.1408L25.7311 35.2013C27.8771 37.4036 30.8699 38.7526 34.2236 38.7526C37.5849 38.7526 40.6024 37.4036 42.7756 35.2013L42.8003 35.1408C44.9767 32.9578 46.3034 29.8999 46.3034 26.4794C46.3034 23.0791 44.9767 20.0018 42.8003 17.7971H42.7756ZM34.2236 185.792C37.5849 185.792 40.6024 184.399 42.7756 182.218L42.8003 182.155C44.9767 179.978 46.3034 176.901 46.3034 173.519C46.3034 170.099 44.9767 167.036 42.8003 164.82H42.7756C40.6024 162.577 37.5849 161.222 34.2236 161.222C30.8699 161.222 27.8771 162.577 25.7311 164.82H25.6749C23.5084 167.036 22.1638 170.099 22.1638 173.519C22.1638 176.901 23.5084 179.978 25.6749 182.155L25.7311 182.218C27.8771 184.399 30.8699 185.792 34.2236 185.792ZM99.9308 148.609C102.918 147.809 105.623 145.859 107.273 142.908L107.496 142.477C108.964 139.683 109.234 136.452 108.448 133.586C107.657 130.525 105.718 127.809 102.825 126.12L102.655 126.004C99.8352 124.427 96.6257 124.084 93.6768 124.902C90.6774 125.664 87.9814 127.697 86.34 130.622C84.6771 133.529 84.3299 136.871 85.1247 139.947C85.9474 142.974 87.8701 145.708 90.7458 147.416H90.7639C93.6452 149.103 96.9044 149.404 99.9308 148.609ZM46.5937 87.4232C43.4278 84.2109 39.0589 82.1974 34.2236 82.1974C29.3948 82.1974 25.0386 84.2109 21.8793 87.4232C18.7282 90.6324 16.7867 95.0587 16.7867 99.9791C16.7867 104.9 18.7282 109.345 21.8793 112.592C25.0386 115.785 29.3948 117.78 34.2236 117.78C39.0589 117.78 43.4278 115.785 46.5937 112.592C49.7505 109.345 51.692 104.9 51.692 99.9791C51.692 95.0587 49.7505 90.6324 46.5937 87.4232ZM39.6376 66.5079C46.6553 67.6842 52.9592 71.1047 57.7763 76.0436H57.8133C58.5799 76.8205 59.3254 77.6761 60.0178 78.532L72.0597 71.4445C70.4396 66.4669 70.3653 61.2627 71.6663 56.38C73.3828 49.8462 77.5472 43.9944 83.789 40.3291L83.9935 40.1966C90.1678 36.6418 97.1855 35.9026 103.52 37.6485C109.935 39.3978 115.723 43.6546 119.325 49.9971V50.0156C122.911 56.3238 123.638 63.5632 121.928 70.0785C120.221 76.6133 116.041 82.5028 109.805 86.149L108.16 87.1363H107.994C102.224 89.931 95.8837 90.368 90.0589 88.8075C85.2764 87.5173 80.8895 84.7989 77.454 80.9448L65.4311 88.0113C66.8129 91.7331 67.5763 95.7417 67.5763 99.9792C67.5763 104.195 66.8129 108.263 65.4311 112.003L77.454 119.051C80.8895 115.137 85.2764 112.479 90.0589 111.186C96.4772 109.402 103.588 110.16 109.805 113.847L110.204 114.036V114.054C116.208 117.761 120.24 123.478 121.928 129.936C123.638 136.415 122.911 143.656 119.325 149.977L119.108 150.418L119.083 150.38C115.482 156.474 109.805 160.602 103.538 162.348C97.111 164.072 89.9969 163.335 83.7888 159.701V159.651C77.547 155.98 73.3827 150.116 71.6661 143.593C70.3652 138.733 70.4394 133.529 72.0595 128.552L60.0177 121.483C59.3252 122.338 58.5797 123.156 57.8132 123.933L57.7762 123.971C52.959 128.891 46.6551 132.312 39.6375 133.45V147.608C44.6395 148.672 49.1163 151.217 52.6251 154.788L52.644 154.825C57.3468 159.588 60.2588 166.224 60.2588 173.519C60.2588 180.79 57.3468 187.388 52.644 192.176L52.6251 192.251C47.8885 197.036 41.3937 200 34.2234 200C27.0912 200 20.5773 197.036 15.8532 192.251H15.8342V192.176C11.126 187.388 8.20748 180.79 8.20748 173.519C8.20748 166.224 11.126 159.588 15.8342 154.825V154.788H15.8532C19.3587 151.217 23.8445 148.672 28.8292 147.608V133.45C21.8107 132.312 15.5193 128.891 10.7087 123.971L10.6593 123.933C4.65238 117.799 0.889648 109.345 0.889648 99.9791C0.889648 90.6324 4.65238 82.178 10.6593 76.0436H10.7087C15.5193 71.1047 21.8107 67.6842 28.8292 66.5079V52.4101C23.8446 51.3094 19.3588 48.7639 15.8534 45.2118H15.8344V45.1739C11.1262 40.3668 8.20766 33.7758 8.20766 26.4793C8.20766 19.2214 11.1262 12.5729 15.8344 7.78557L15.8534 7.76623C20.5775 2.96173 27.0913 0 34.2236 0C41.3939 0 47.8887 2.96173 52.6253 7.76623V7.78557H52.6442C57.347 12.5729 60.259 19.2214 60.259 26.4793C60.259 33.7758 57.347 40.3668 52.6442 45.1739L52.6253 45.2118C49.1164 48.7639 44.6397 51.3094 39.6376 52.4101V66.5079ZM107.273 57.104L107.172 56.9496C105.512 54.1032 102.862 52.2029 99.9308 51.3839C96.9044 50.5669 93.6453 50.9091 90.7458 52.6021H90.7639C87.8701 54.2726 85.9351 57.0067 85.1246 60.0672C84.3298 63.1067 84.677 66.4669 86.3399 69.3932L86.3952 69.4688C88.0621 72.3564 90.7143 74.2943 93.6767 75.0746C96.6503 75.9302 99.9679 75.5687 102.825 73.8757L102.98 73.8001C105.793 72.092 107.667 69.3932 108.448 66.4291C109.246 63.3711 108.927 60.0295 107.273 57.104Z" fill="#231F20"/>
</svg>