<?xml version="1.0" encoding="UTF-8" standalone="no"?>
<svg
   id="Layer_2"
   data-name="Layer 2"
   viewBox="0 0 141.2 141.20001"
   version="1.1"
   sodipodi:docname="osv-scanner-full-logo-lightmode.svg"
   width="141.2"
   height="141.20001"
   xmlns:inkscape="http://www.inkscape.org/namespaces/inkscape"
   xmlns:sodipodi="http://sodipodi.sourceforge.net/DTD/sodipodi-0.dtd"
   xmlns="http://www.w3.org/2000/svg"
   xmlns:svg="http://www.w3.org/2000/svg">
  <sodipodi:namedview
     id="namedview11"
     pagecolor="#ffffff"
     bordercolor="#000000"
     borderopacity="0.25"
     inkscape:showpageshadow="2"
     inkscape:pageopacity="0.0"
     inkscape:pagecheckerboard="0"
     inkscape:deskcolor="#d1d1d1" />
  <defs
     id="defs1">
    <style
       id="style1">
      .cls-1 {
        fill: #231f20;
      }

      .cls-2 {
        fill: #e60013;
      }
    </style>
    <clipPath
       clipPathUnits="userSpaceOnUse"
       id="clipPath12">
      <rect
         style="opacity:0;fill:#0000ff;fill-rule:evenodd"
         id="rect13"
         width="143.23253"
         height="143.17427"
         x="0.96656722"
         y="-0.45999163"
         ry="0" />
    </clipPath>
    <clipPath
       clipPathUnits="userSpaceOnUse"
       id="clipPath13">
      <rect
         style="opacity:0;fill:#0000ff;fill-rule:evenodd"
         id="rect14"
         width="143.23253"
         height="143.17427"
         x="0.96656722"
         y="-0.45999163"
         ry="0" />
    </clipPath>
    <clipPath
       clipPathUnits="userSpaceOnUse"
       id="clipPath14">
      <rect
         style="opacity:0;fill:#0000ff;fill-rule:evenodd"
         id="rect15"
         width="143.23253"
         height="143.17427"
         x="0.96656722"
         y="-0.45999163"
         ry="0" />
    </clipPath>
    <clipPath
       clipPathUnits="userSpaceOnUse"
       id="clipPath15">
      <rect
         style="opacity:0;fill:#0000ff;fill-rule:evenodd"
         id="rect16"
         width="143.23253"
         height="143.17427"
         x="0.96656722"
         y="-0.45999163"
         ry="0" />
    </clipPath>
  </defs>
  <circle
     class="cls-2"
     cx="72.699997"
     cy="71.110001"
     r="11.4"
     id="circle1"
     clip-path="url(#clipPath15)"
     transform="translate(-2.0999999,-0.50999999)" />
  <path
     class="cls-2"
     d="m 114.91,14.52 -30.6,40.7 c 3.15,2.3 5.57,5.51 6.92,9.24 L 139.22,47.44 C 134.51,34.2 125.97,22.78 114.92,14.52 Z"
     id="path2"
     clip-path="url(#clipPath14)"
     transform="translate(-2.0999999,-0.50999999)" />
  <path
     class="cls-1"
     d="m 141.52,55.41 -23.33,8.02 c 0.47,2.63 0.75,5.32 0.75,8.08 0,25.49 -20.66,46.15 -46.15,46.15 -25.49,0 -46.15,-20.66 -46.15,-46.15 0,-25.49 20.66,-46.15 46.15,-46.15 7.5,0 14.56,1.79 20.81,4.97 l 14.97,-20 C 98.05,4.11 85.8,0.51 72.7,0.51 33.71,0.51 2.1,32.12 2.1,71.11 c 0,38.99 31.61,70.6 70.6,70.6 38.99,0 70.6,-31.61 70.6,-70.6 0,-5.4 -0.63,-10.65 -1.78,-15.71 z"
     id="path3"
     clip-path="url(#clipPath13)"
     transform="translate(-2.0999999,-0.50999999)" />
  <path
     class="cls-1"
     d="M 92.35,72.32 C 91.82,82.73 83.24,91.01 72.7,91.01 62.16,91.01 53,82.19 53,71.31 c 0,-10.88 8.82,-19.7 19.7,-19.7 1.57,0 3.08,0.24 4.54,0.59 L 85.57,41.07 C 84.04,40.42 82.46,39.84 80.8,39.42 63.18,34.94 45.27,45.6 40.79,63.22 c -4.48,17.62 6.18,35.53 23.8,40.01 17.62,4.48 35.53,-6.18 40.01,-23.8 0.99,-3.9 1.2,-7.8 0.8,-11.58 l -13.05,4.49 z"
     id="path4"
     clip-path="url(#clipPath12)"
     transform="translate(-2.0999999,-0.50999999)" />
</svg>
