<?xml version="1.0" encoding="UTF-8" standalone="no"?>
<!-- Generator: Adobe Illustrator 16.0.0, SVG Export Plug-In . SVG Version: 6.00 Build 0)  -->

<svg
   version="1.1"
   id="Layer_1"
   x="0px"
   y="0px"
   width="1000px"
   height="1000px"
   viewBox="0 0 1000 1000"
   enable-background="new 0 0 1000 1000"
   xml:space="preserve"
   sodipodi:docname="pdf.svg"
   inkscape:version="1.3.2 (1:1.3.2+202311252150+091e20ef0f)"
   xmlns:inkscape="http://www.inkscape.org/namespaces/inkscape"
   xmlns:sodipodi="http://sodipodi.sourceforge.net/DTD/sodipodi-0.dtd"
   xmlns="http://www.w3.org/2000/svg"
   xmlns:svg="http://www.w3.org/2000/svg"><defs
   id="defs4" /><sodipodi:namedview
   id="namedview4"
   pagecolor="#ffffff"
   bordercolor="#000000"
   borderopacity="0.25"
   inkscape:showpageshadow="2"
   inkscape:pageopacity="0.0"
   inkscape:pagecheckerboard="0"
   inkscape:deskcolor="#d1d1d1"
   inkscape:zoom="1.865"
   inkscape:cx="500"
   inkscape:cy="500"
   inkscape:window-width="3770"
   inkscape:window-height="2089"
   inkscape:window-x="0"
   inkscape:window-y="0"
   inkscape:window-maximized="1"
   inkscape:current-layer="Layer_1" />
<g
   id="g4"
   style="fill:#ee3d40;fill-opacity:1">
	<path
   fill="#003263"
   d="M872.243,214.873l-13.074-13.075L687.971,30.599l-13.074-13.075c-5.92-5.918-14.128-9.327-22.521-9.327   H160.198c-20.113,0-41.771,15.534-41.771,49.621v611.77v280.445v7.854c0,14.193,14.279,28.033,31.17,32.392   c0.848,0.219,1.662,0.543,2.544,0.711c2.646,0.526,5.342,0.813,8.056,0.813h679.604c2.713,0,5.41-0.287,8.056-0.813   c0.882-0.168,1.694-0.492,2.544-0.711c16.891-4.357,31.17-18.197,31.17-32.392v-7.854V669.588V245.246   C881.571,232.239,880.011,222.64,872.243,214.873z M821.114,211.702H678.065V68.655L821.114,211.702z M160.198,957.887   c-1.204,0-2.29-0.44-3.358-0.832c-2.646-1.256-4.494-3.899-4.494-7.021v-246.53h695.309v246.529c0,3.121-1.851,5.75-4.495,7.021   c-1.067,0.392-2.153,0.832-3.356,0.832L160.198,957.887L160.198,957.887z M152.346,669.588V57.818c0-3.68,0.56-15.704,7.853-15.704   h484.935c-0.561,2.137-0.983,4.341-0.983,6.631v196.874h196.873c2.291,0,4.479-0.424,6.614-0.983c0,0.254,0.019,0.356,0.019,0.61   v424.342H152.346z"
   id="path1"
   style="fill:#ee3d40;fill-opacity:1" />
	<path
   fill="#EE3D40"
   d="M382.001,766.998c-5.647-4.629-12.023-8.123-19.13-10.43c-7.104-2.322-14.296-3.478-21.555-3.478H292.17   v170.877H320v-61.68h20.639c8.954,0,17.162-1.305,24.574-3.937c7.41-2.627,13.753-6.342,19.01-11.122   c5.257-4.783,9.344-10.701,12.294-17.738c2.935-7.039,4.409-14.873,4.409-23.539c0-8.191-1.746-15.568-5.223-22.148   C392.227,777.224,387.648,771.645,382.001,766.998z M371.453,823.453c-1.713,4.715-3.935,8.379-6.716,11.006   c-2.781,2.631-5.834,4.529-9.158,5.682c-3.323,1.154-6.698,1.748-10.09,1.748h-25.507V774.19h20.859   c7.106,0,12.822,1.118,17.163,3.356c4.324,2.238,7.682,5.021,10.09,8.344c2.391,3.324,3.968,6.802,4.749,10.431   c0.763,3.629,1.153,6.834,1.153,9.614C373.997,812.906,373.148,818.74,371.453,823.453z"
   id="path2"
   style="fill:#ee3d40;fill-opacity:1" />
	<path
   fill="#EE3D40"
   d="M550.096,778.123c-7.189-7.564-16.229-13.652-27.134-18.197s-23.538-6.834-37.901-6.834h-51.472v170.877   h64.683c2.152,0,5.478-0.271,9.971-0.813c4.478-0.543,9.43-1.765,14.84-3.716c5.409-1.932,11.006-4.831,16.806-8.698   c5.801-3.865,11.007-9.158,15.653-15.892c4.646-6.731,8.462-15.075,11.48-25.047c3.019-9.973,4.527-21.996,4.527-36.055   c0-10.209-1.781-20.146-5.325-29.797C562.646,794.318,557.287,785.705,550.096,778.123z M529.813,885.473   c-8.344,12.058-21.943,18.078-40.803,18.078h-27.592V774.172h16.229c13.297,0,24.115,1.746,32.459,5.223   c8.345,3.478,14.957,8.039,19.824,13.687s8.142,11.938,9.854,18.893c1.694,6.953,2.543,13.99,2.543,21.097   C542.328,855.945,538.156,873.432,529.813,885.473z"
   id="path3"
   style="fill:#ee3d40;fill-opacity:1" />
	<polygon
   fill="#EE3D40"
   points="611.895,923.969 640.182,923.969 640.182,846.992 711.594,846.992 711.594,827.982    640.182,827.982 640.182,774.189 718.768,774.189 718.768,753.092 611.895,753.092  "
   id="polygon3"
   style="fill:#ee3d40;fill-opacity:1" />
	<path
   fill="#EE3D40"
   d="M659.887,397.586c-15.585,0-34.715,2.035-56.946,6.071c-31.034-32.935-63.426-81.029-86.286-128.242   c22.674-95.461,11.328-108.977,6.324-115.354c-5.324-6.783-12.837-17.79-21.384-17.79c-3.579,0-13.348,1.628-17.229,2.917   c-9.77,3.255-15.026,10.786-19.231,20.605c-11.989,28.033,4.46,75.822,21.386,112.657c-14.467,57.541-38.733,126.41-64.239,182.307   c-64.273,29.44-98.412,58.354-101.498,85.947c-1.119,10.039,1.256,24.775,18.909,38.02c4.833,3.613,10.497,5.529,16.398,5.529l0,0   c14.839,0,29.831-11.361,47.181-35.731c12.65-17.771,26.233-42.007,40.411-72.092c45.416-19.857,101.601-37.8,149.712-47.856   c26.795,25.727,50.791,38.75,71.413,38.75c15.195,0,28.221-6.986,37.647-20.197c9.82-13.753,12.059-26.064,6.615-36.63   C702.538,403.793,686.444,397.586,659.887,397.586z M356.462,561.627c-7.938-6.088-7.479-10.191-7.31-11.734   c1.052-9.43,15.823-26.166,52.063-46.533C373.742,554.098,358.988,560.832,356.462,561.627z M495.521,172.9   c0.729-0.237,17.724,18.672,1.63,54.54C472.968,202.697,493.861,173.459,495.521,172.9z M460.47,444.681   c17.213-41.022,33.223-86.319,45.349-128.275c19.044,34.223,41.921,67.428,64.814,94.019   C534.443,418.921,495.913,430.91,460.47,444.681z M679.253,436.557c-5.224,7.311-16.552,7.479-20.52,7.479   c-9.039,0-12.414-5.376-26.234-16.01c11.396-1.458,22.147-1.831,30.711-1.831c15.077,0,17.842,2.221,19.927,3.34   C682.764,430.74,681.781,433.013,679.253,436.557z"
   id="path4"
   style="fill:#ee3d40;fill-opacity:1" />
</g>
</svg>
