<svg width="41" height="40" viewBox="0 0 41 40" fill="none" xmlns="http://www.w3.org/2000/svg">
<rect x="4.93164" y="2.9917" width="31.2465" height="33.6842" fill="#FDFAED"/>
<path fill-rule="evenodd" clip-rule="evenodd" d="M4.93213 0C2.48433 0 0.5 1.98433 0.5 4.43213V35.5679C0.5 38.0157 2.48433 40 4.93213 40H36.0679C38.5157 40 40.5 38.0157 40.5 35.5679V4.43213C40.5 1.98433 38.5157 0 36.0679 0H4.93213ZM15.3387 5.74509C15.5313 5.41235 15.8879 5.20743 16.2738 5.20778L24.9443 5.21568C25.3291 5.21603 25.6846 5.42048 25.877 5.75214L32.045 16.3841C32.3428 16.8973 32.1661 17.5535 31.6504 17.8497L29.8656 18.8753C29.3499 19.1715 28.6905 18.9957 28.3928 18.4825L25.7865 13.99C24.5692 11.8917 21.873 11.1727 19.7645 12.3842C17.6561 13.5957 16.9336 16.2788 18.151 18.3771L20.7573 22.8697C21.055 23.3828 20.8783 24.039 20.3627 24.3353L18.6516 25.3184C18.136 25.6147 17.4766 25.4389 17.1789 24.9257L11.0108 14.2938C10.8184 13.9621 10.8182 13.5535 11.0103 13.2217L15.3387 5.74509ZM25.5504 34.255C25.3577 34.5877 25.0011 34.7926 24.6152 34.7923L15.9448 34.7844C15.5599 34.784 15.2045 34.5796 15.0121 34.2479L8.84398 23.616C8.54627 23.1028 8.72294 22.4466 9.2386 22.1503L11.0226 21.1253C11.5383 20.829 12.1976 21.0048 12.4953 21.518L15.1015 26.0103C16.3188 28.1086 19.015 28.8275 21.1235 27.6161C23.2319 26.4046 23.9544 23.7215 22.737 21.6231L20.1309 17.1309C19.8331 16.6177 20.0098 15.9615 20.5255 15.6652L22.2374 14.6816C22.7531 14.3853 23.4124 14.5612 23.7101 15.0743L29.8782 25.7063C30.0706 26.0379 30.0708 26.4465 29.8787 26.7784L25.5504 34.255Z" fill="#F65F1E"/>
</svg>
