<?xml version="1.0" encoding="UTF-8"?>
<svg version="1.1" xmlns="http://www.w3.org/2000/svg" width="500" height="500">
<path d="M0 0 C137.28 0 274.56 0 416 0 C414.50697948 3.73255129 413.04854911 6.82962441 411.05078125 10.26171875 C410.16132812 11.79602539 410.16132812 11.79602539 409.25390625 13.36132812 C408.61324219 14.45896484 407.97257812 15.55660156 407.3125 16.6875 C406.6376662 17.84940348 405.96319344 19.01151671 405.2890625 20.17382812 C403.88892911 22.5872404 402.48724981 24.9997446 401.08447266 27.41162109 C397.87508732 32.93267071 394.68874937 38.46701601 391.5 44 C390.2501082 46.16672909 389.00010785 48.33339556 387.75 50.5 C387.13125 51.5725 386.5125 52.645 385.875 53.75 C368.0625 84.625 368.0625 84.625 350.25 115.5 C349.63116943 116.57266113 349.01233887 117.64532227 348.37475586 118.75048828 C347.12564482 120.91557071 345.87645871 123.08060982 344.62719727 125.24560547 C341.48797691 130.68615706 338.35009437 136.12747216 335.21484375 141.5703125 C328.36527208 153.45791858 321.49108041 165.33041168 314.56616211 177.17431641 C313.75417358 178.56336182 313.75417358 178.56336182 312.92578125 179.98046875 C312.22062378 181.18546021 312.22062378 181.18546021 311.5012207 182.41479492 C309.65128398 185.60051292 307.82772259 188.80148547 306 192 C331.74 192.33 357.48 192.66 384 193 C384 198.61 384 204.22 384 210 C381.38247803 209.89413574 378.76495605 209.78827148 376.06811523 209.67919922 C367.36840994 209.34674439 358.66984318 209.16053693 349.96470547 209.04403496 C344.69030838 208.96903934 339.42636324 208.84672041 334.15649414 208.61132812 C311.83308699 206.43568647 311.83308699 206.43568647 291.68804932 213.44787598 C286.51622818 219.448083 283.74921371 226.09775809 281.27835083 233.54937744 C279.09442607 239.44439456 275.76010748 244.64969036 272.5 250 C271.24488754 252.16370912 269.99428067 254.33004377 268.75 256.5 C261.25 269.5 253.75 282.5 246.25 295.5 C245.63092773 296.57306396 245.01185547 297.64612793 244.37402344 298.75170898 C243.12729744 300.91268988 241.88055273 303.07365998 240.63378906 305.23461914 C236.81136035 311.85992913 232.98941995 318.48552014 229.16870117 325.11181641 C227.90425351 327.30348279 226.63881483 329.49457777 225.37231445 331.68505859 C222.45574547 336.73062604 219.55170674 341.782176 216.68359375 346.85546875 C216.17473633 347.75015869 215.66587891 348.64484863 215.14160156 349.56665039 C214.19600784 351.23033014 213.25622384 352.89733008 212.32324219 354.56811523 C211.2715492 356.41186707 210.14389583 358.21198957 209 360 C208.34 360 207.68 360 207 360 C158.24999999 275.49999999 158.24999999 275.49999999 156.37402344 272.24829102 C155.12729744 270.08731012 153.88055273 267.92634002 152.63378906 265.76538086 C149.45854117 260.26181149 146.28364505 254.75803968 143.109375 249.25390625 C142.46291016 248.13306641 141.81644531 247.01222656 141.15039062 245.85742188 C139.94583786 243.76895269 138.74139704 241.68041893 137.53710938 239.59179688 C136.40574159 237.63032838 135.25543125 235.67965424 134.08570862 233.74081421 C132.48282351 230.9909835 131.19501519 228.19404239 129.94212341 225.26931763 C126.02251281 216.23838645 126.02251281 216.23838645 118.87675095 209.91942406 C112.83482097 208.2625806 106.65635343 208.669361 100.45703125 208.92578125 C98.47738803 208.9388018 96.49767321 208.94340099 94.51799011 208.93998718 C89.33742866 208.95344311 84.16578717 209.0802735 78.9876709 209.23181152 C73.69227578 209.36637983 68.39643141 209.39231888 63.09960938 209.42773438 C52.72908609 209.51292308 42.36730893 209.72806747 32 210 C32 204.39 32 198.78 32 193 C57.74 192.67 83.48 192.34 110 192 C101.23903721 176.66831512 92.47812284 161.36260994 83.5625 146.125 C79.3178107 138.84838977 75.14995766 131.52825106 70.97949219 124.20898438 C66.36497196 116.11255867 61.70904745 108.04193491 57 100 C51.5964354 90.77199471 46.27347639 81.5000533 40.97949219 72.20898438 C36.36497011 64.11255542 31.70873223 56.04212169 27 48 C22.10937361 39.641115 17.25414035 31.26275088 12.44042969 22.859375 C11.74034 21.63758695 11.03951573 20.41621947 10.33789062 19.1953125 C9.35580072 17.48567824 8.37706972 15.77411586 7.3984375 14.0625 C6.83817871 13.08410156 6.27791992 12.10570313 5.70068359 11.09765625 C3.69924658 7.45220221 1.85984329 3.71968658 0 0 Z M29 16 C30.48491993 19.71229983 31.96807308 22.90600693 33.90625 26.359375 C34.47980225 27.38345459 35.05335449 28.40753418 35.64428711 29.46264648 C36.25667236 30.54747314 36.86905762 31.6322998 37.5 32.75 C38.13365479 33.87672119 38.76730957 35.00344238 39.42016602 36.16430664 C43.25000564 42.95517743 47.13335601 49.70984746 51.1105957 56.4152832 C54.85304663 62.72724525 58.52403479 69.07941601 62.1875 75.4375 C62.82550537 76.54472412 63.46351074 77.65194824 64.12084961 78.79272461 C65.42889477 81.06337068 66.73675448 83.33412358 68.04443359 85.60498047 C71.19332054 91.0716998 74.34683264 96.53574887 77.5 102 C78.7500235 104.16665311 80.00002347 106.33331979 81.25 108.5 C81.86875 109.5725 82.4875 110.645 83.125 111.75 C98.75 138.83333333 114.375 165.91666667 130 193 C181.48 193 232.96 193 286 193 C290.29 185.41 294.58 177.82 299 170 C301.28051034 166.05476393 303.56493281 162.11502296 305.875 158.1875 C312.67100718 146.58184858 319.39590883 134.93605309 326.10888672 123.28222656 C329.23680148 117.85340058 332.36858448 112.42680719 335.5 107 C336.75001879 104.83334417 338.00001878 102.6666775 339.25 100.5 C343 94 343 94 346.75 87.5 C347.36883057 86.42733887 347.98766113 85.35467773 348.62524414 84.24951172 C349.87435518 82.08442929 351.12354129 79.91939018 352.37280273 77.75439453 C355.51202309 72.31384294 358.64990563 66.87252784 361.78515625 61.4296875 C363.04426459 59.24478807 364.30337914 57.05989221 365.5625 54.875 C366.17295166 53.81474609 366.78340332 52.75449219 367.41235352 51.66210938 C370.60282634 46.12784828 373.81287582 40.60590431 377.0546875 35.1015625 C377.70622803 33.99312988 378.35776855 32.88469727 379.02905273 31.74267578 C380.2773778 29.62162506 381.52934949 27.50271524 382.78540039 25.38623047 C383.3396167 24.44408691 383.89383301 23.50194336 384.46484375 22.53125 C384.955896 21.70173828 385.44694824 20.87222656 385.95288086 20.01757812 C387.15355086 18.08299336 387.15355086 18.08299336 387 16 C268.86 16 150.72 16 29 16 Z M141 210 C142.45122453 213.62806134 143.87544185 216.74228784 145.765625 220.11328125 C146.31855225 221.10126709 146.87147949 222.08925293 147.44116211 223.10717773 C148.03807861 224.16493408 148.63499512 225.22269043 149.25 226.3125 C149.87334229 227.42117432 150.49668457 228.52984863 151.13891602 229.67211914 C156.47873305 239.13940877 161.94123025 248.53299965 167.4375 257.91015625 C171.13213349 264.21570485 174.78844812 270.54298913 178.4375 276.875 C179.05351074 277.94355225 179.66952148 279.01210449 180.30419922 280.11303711 C182.87879544 284.5802062 185.45211315 289.04811045 188.02441406 293.51660156 C189.38115258 295.87346291 190.73833221 298.23006924 192.09594727 300.58642578 C193.36546119 302.79006869 194.63423268 304.99413955 195.90209961 307.19873047 C197.59471263 310.13641655 199.29705436 313.06829577 201 316 C201.55929199 316.9796875 202.11858398 317.959375 202.69482422 318.96875 C203.22736816 319.8865625 203.75991211 320.804375 204.30859375 321.75 C205.01520142 322.97976563 205.01520142 322.97976563 205.73608398 324.234375 C206.15317627 324.81703125 206.57026855 325.3996875 207 326 C207.66 326 208.32 326 209 326 C209.56376343 325.02281006 209.56376343 325.02281006 210.13891602 324.02587891 C221.00927734 305.18391927 231.87963867 286.34195964 242.75 267.5 C243.67921265 265.88931641 243.67921265 265.88931641 244.62719727 264.24609375 C245.86976019 262.0923828 247.11243489 259.93873633 248.35522461 257.78515625 C251.25314623 252.76315738 254.15003349 247.74057193 257.04275513 242.71557617 C258.05947198 240.94954478 259.07655658 239.18372569 260.09375 237.41796875 C261.36400873 235.21265845 262.63359018 233.00695784 263.90234375 230.80078125 C267.16638294 225.13585991 270.48428892 219.51676466 273.93139648 213.9609375 C275.15950247 212.07950576 275.15950247 212.07950576 275 210 C230.78 210 186.56 210 141 210 Z " fill="#000000" transform="translate(42,74)"/>
</svg>
