<svg width="41" height="38" viewBox="0 0 41 38" fill="none" xmlns="http://www.w3.org/2000/svg">
<path d="M31.6923 16.58C31.6923 13.561 31.1441 10.6626 30.0572 7.95934C29.8436 8.05223 29.6671 8.13585 29.5557 8.19158C29.0633 8.4424 28.7846 8.9812 28.8496 9.52928C28.9797 10.6533 29.0633 11.9631 29.0633 13.143C29.0633 18.661 27.2796 23.956 24.0469 28.0528C20.9906 31.9264 16.8847 34.4068 12.4163 35.122C12.4256 35.122 12.4442 35.1406 12.4535 35.1406C15.0639 36.627 18.2595 36.7199 20.9535 35.4008C27.2611 32.298 31.7015 25.0243 31.7015 16.5708H31.6923V16.58Z" fill="#D3121D"/>
<path d="M32.9277 7.40191C32.5097 7.39262 32.1196 7.42048 31.7573 7.47622C32.8813 10.3374 33.4572 13.403 33.4572 16.58C33.4572 26.0553 28.1715 34.481 20.4611 37.5466C20.8513 37.5745 21.2414 37.5838 21.641 37.5838H21.6966C25.4124 37.5838 28.9425 35.8744 31.2742 32.9854C34.2282 29.3253 36.0398 24.4111 36.0398 19.0046C36.0398 14.8243 34.9715 10.8205 32.937 7.40191H32.9277Z" fill="#D3121D"/>
<path d="M40.2107 19.0048C40.2107 16.4779 39.7092 14.0719 38.7987 11.8796C38.3807 10.8671 37.7955 9.9381 37.0151 9.16706C36.5785 8.73975 36.114 8.37744 35.6124 8.11734C35.4824 8.05231 35.3523 7.98729 35.2222 7.93155C36.9037 11.2851 37.7955 15.0938 37.7955 19.0048C37.7955 24.4949 36.0118 29.7807 32.8348 33.8309C37.3218 30.4402 40.22 25.0616 40.22 19.0048H40.2107Z" fill="#D3121D"/>
<path d="M34.9624 6.05497C31.581 2.58065 26.8619 0.416183 21.6318 0.416183C11.3576 0.416183 2.9412 8.92545 3.05266 19.1905C3.08054 21.6986 3.60076 24.0953 4.52972 26.2691C4.22315 26.2319 3.9166 26.2133 3.61004 26.2319C2.77398 26.2691 1.6035 25.9718 1.0647 25.8232C0.54448 25.6746 0.0521321 26.1019 0.275082 26.6036V26.6222C2.12371 30.8488 6.21112 33.5986 10.1127 33.5893C10.3729 33.5893 10.633 33.5708 10.8931 33.5522C20.034 32.8554 27.2892 23.9745 27.2892 13.1615C27.2892 12.4834 27.2613 11.8052 27.2055 11.1271C27.1778 10.7555 26.704 10.6254 26.481 10.9227C23.9542 14.2669 20.2106 20.1566 15.5193 17.091C13.7263 15.9113 12.751 13.3844 13.299 10.8019C14.2745 6.17573 19.6718 3.13803 22.0406 4.08557C22.2264 4.15988 22.8953 4.42929 23.1181 5.03311C23.4619 5.96207 22.4215 6.7331 21.8827 8.37736C21.3067 10.161 21.6318 12.056 22.0406 12.1304C22.4865 12.2233 23.2482 10.5697 25.1154 9.0555C26.4717 7.96861 27.4936 7.65277 28.1345 6.50086C28.7569 5.38611 27.6516 4.17847 28.0231 4.07628C28.404 3.96481 28.7476 5.27463 29.8624 5.91562C30.7914 6.45441 31.6274 6.11999 32.8536 6.07354C32.8536 6.07354 33.3739 6.05497 34.2192 6.17573C34.2192 6.17573 34.4608 6.21288 34.8416 6.28721C34.9717 6.31507 35.0646 6.14786 34.9717 6.05497H34.9624ZM21.1117 20.3795C21.2509 20.2215 21.5111 19.915 21.957 19.8686C22.0406 19.8686 22.4865 19.8221 22.7838 20.1009C23.2204 20.5189 23.0996 21.327 22.7094 21.7915C22.3471 22.2188 21.6411 22.5068 21.1395 22.1817C20.7214 21.9123 20.7028 21.3363 20.7028 21.2899C20.7028 20.844 20.963 20.5375 21.1024 20.3795H21.1117Z" fill="#290042"/>
</svg>
