<?xml version="1.0" encoding="UTF-8" standalone="no"?>
<svg
   width="201"
   height="262.17999"
   viewBox="0 0 201 262.17999"
   fill="none"
   version="1.1"
   id="svg5"
   sodipodi:docname="stdout-json.svg"
   inkscape:version="1.3.2 (1:1.3.2+202311252150+091e20ef0f)"
   xmlns:inkscape="http://www.inkscape.org/namespaces/inkscape"
   xmlns:sodipodi="http://sodipodi.sourceforge.net/DTD/sodipodi-0.dtd"
   xmlns="http://www.w3.org/2000/svg"
   xmlns:svg="http://www.w3.org/2000/svg">
  <defs
     id="defs5" />
  <sodipodi:namedview
     id="namedview5"
     pagecolor="#ffffff"
     bordercolor="#000000"
     borderopacity="0.25"
     inkscape:showpageshadow="2"
     inkscape:pageopacity="0.0"
     inkscape:pagecheckerboard="0"
     inkscape:deskcolor="#d1d1d1"
     inkscape:zoom="5.2316667"
     inkscape:cx="100.06371"
     inkscape:cy="131.41128"
     inkscape:window-width="3770"
     inkscape:window-height="2089"
     inkscape:window-x="0"
     inkscape:window-y="0"
     inkscape:window-maximized="1"
     inkscape:current-layer="svg5" />
  <path
     fill-rule="evenodd"
     clip-rule="evenodd"
     d="M 18.178,0 C 8.299,0 0,7.76224 0,17.5638 V 244.616 c 0,9.767 8.284,17.564 18.178,17.564 h 164.609 c 9.879,0 18.177,-7.762 18.177,-17.564 v -6.555 c 0,-0.127 0.036,-0.247 0.036,-0.374 V 188.15 c 0.002,-0.199 -0.01,-0.397 -0.036,-0.593 V 56.8761 c 0,-0.6089 -0.126,-1.2112 -0.368,-1.7696 -0.243,-0.5583 -0.598,-1.0609 -1.043,-1.4765 L 144.723,1.24901 C 143.894,0.448168 142.786,4.19283e-4 141.633,0 Z m 0,8.94775 H 139.84 l 0.36,0.33871 V 43.6944 c 0,3.8458 0.127,7.6634 1.898,11.234 1.772,3.5707 5.999,6.2451 10.804,6.2451 h 39.136 V 183.492 H 8.941 V 17.5638 c 0,-4.742 3.93,-8.61605 9.237,-8.61605 z m 130.765,8.68665 36.44,34.8031 h -32.46 c -2.455,0 -2.392,-0.2258 -2.971,-1.4114 -0.578,-1.1855 -0.988,-3.9234 -0.988,-7.3459 z M 76.747,69.5073 C 71.042,69.5259 65.576,71.8 61.542,75.8333 57.507,79.8667 55.231,85.332 55.211,91.037 v 10.768 c 0.019,1.42 -0.247,2.828 -0.781,4.144 -0.535,1.315 -1.327,2.509 -2.331,3.513 -1.004,1.004 -2.198,1.796 -3.513,2.331 -1.315,0.534 -2.724,0.8 -4.144,0.781 -1.082,-0.019 -2.145,0.291 -3.048,0.889 -0.904,0.597 -1.605,1.454 -2.012,2.457 -0.407,1.003 -0.501,2.107 -0.269,3.164 0.232,1.058 0.779,2.021 1.568,2.762 0.261,0.24 0.542,0.457 0.84,0.649 0.465,0.283 0.969,0.494 1.496,0.628 0.336,0.102 0.681,0.171 1.03,0.205 0.125,0.007 0.25,0.007 0.374,0 1.42,-0.019 2.828,0.246 4.143,0.781 1.315,0.534 2.51,1.327 3.514,2.331 1.004,1.003 1.796,2.198 2.33,3.513 0.535,1.315 0.801,2.724 0.782,4.143 v 10.769 c 0.026,5.704 2.307,11.168 6.345,15.197 4.039,4.029 9.507,6.298 15.212,6.311 0.707,0.01 1.41,-0.12 2.066,-0.381 0.657,-0.262 1.256,-0.65 1.763,-1.144 0.507,-0.493 0.912,-1.081 1.191,-1.73 0.28,-0.65 0.429,-1.348 0.439,-2.055 0.009,-0.707 -0.12,-1.409 -0.382,-2.066 -0.261,-0.657 -0.65,-1.256 -1.143,-1.763 -0.493,-0.507 -1.081,-0.912 -1.731,-1.191 -0.649,-0.28 -1.347,-0.429 -2.054,-0.438 h -0.149 c -1.419,0.02 -2.827,-0.245 -4.142,-0.779 -1.315,-0.533 -2.51,-1.325 -3.514,-2.328 -1.004,-1.004 -1.796,-2.198 -2.331,-3.512 -0.534,-1.315 -0.8,-2.724 -0.781,-4.143 v -10.74 c -0.017,-3.069 -0.692,-6.1 -1.98,-8.886 -1.288,-2.786 -3.159,-5.264 -5.486,-7.266 2.329,-1.999 4.201,-4.475 5.489,-7.261 1.288,-2.786 1.963,-5.816 1.977,-8.885 V 91.037 c -0.017,-1.4182 0.25,-2.8255 0.785,-4.1389 0.536,-1.3134 1.328,-2.5064 2.332,-3.5086 1.003,-1.0022 2.197,-1.7934 3.512,-2.327 1.314,-0.5336 2.721,-0.7987 4.139,-0.7798 1.397,-0.0275 2.728,-0.5966 3.713,-1.5872 0.984,-0.9906 1.546,-2.3251 1.565,-3.7217 0.019,-1.3967 -0.505,-2.7461 -1.462,-3.7635 -0.957,-1.0173 -2.272,-1.6229 -3.667,-1.6888 z m 42.34,0 c -1.427,0.073 -2.767,0.7099 -3.724,1.7706 -0.958,1.0607 -1.455,2.4583 -1.382,3.8853 0.073,1.427 0.71,2.7666 1.771,3.7241 1.061,0.9574 2.458,1.4543 3.885,1.3813 1.419,-0.018 2.827,0.2483 4.141,0.7831 1.315,0.5349 2.508,1.3275 3.511,2.3312 1.003,1.0036 1.795,2.1979 2.329,3.5125 0.534,1.3146 0.8,2.7228 0.781,4.1416 v 10.768 c 0.015,3.076 0.694,6.112 1.988,8.901 1.294,2.79 3.175,5.268 5.513,7.266 -2.327,2.002 -4.198,4.48 -5.486,7.266 -1.288,2.787 -1.963,5.817 -1.98,8.886 v 10.769 c 0.019,1.418 -0.247,2.826 -0.781,4.14 -0.534,1.315 -1.326,2.508 -2.329,3.511 -1.003,1.004 -2.197,1.796 -3.511,2.33 -1.314,0.534 -2.722,0.799 -4.14,0.78 -0.707,-0.01 -1.41,0.119 -2.067,0.38 -0.657,0.261 -1.256,0.649 -1.763,1.142 -0.508,0.493 -0.913,1.081 -1.193,1.73 -0.28,0.649 -0.429,1.348 -0.439,2.055 -0.01,0.707 0.119,1.409 0.38,2.066 0.261,0.657 0.649,1.256 1.142,1.764 0.493,0.507 1.08,0.912 1.73,1.192 0.649,0.28 1.347,0.429 2.054,0.439 h 0.156 c 5.704,-0.018 11.169,-2.292 15.203,-6.326 4.033,-4.034 6.308,-9.499 6.326,-15.203 v -10.769 c -0.022,-1.419 0.239,-2.828 0.77,-4.145 0.531,-1.316 1.321,-2.513 2.322,-3.519 1.001,-1.007 2.194,-1.802 3.507,-2.34 1.314,-0.538 2.722,-0.807 4.141,-0.792 1.271,0.022 2.507,-0.411 3.486,-1.221 0.141,-0.117 0.275,-0.242 0.403,-0.374 0.751,-0.759 1.261,-1.724 1.462,-2.773 0.202,-1.049 0.087,-2.134 -0.33,-3.118 -0.417,-0.983 -1.117,-1.821 -2.011,-2.405 -0.894,-0.585 -1.942,-0.89 -3.01,-0.877 -1.419,0.019 -2.828,-0.247 -4.143,-0.781 -1.315,-0.535 -2.51,-1.327 -3.513,-2.331 -1.004,-1.004 -1.797,-2.199 -2.331,-3.514 -0.534,-1.315 -0.8,-2.723 -0.781,-4.143 V 91.0582 c -0.019,-5.7043 -2.293,-11.1697 -6.326,-15.2033 -4.034,-4.0335 -9.499,-6.3078 -15.204,-6.3264 -0.183,-0.0141 -0.367,-0.0141 -0.55,0 z M 98.185,90.9946 c -1.065,0 -2.106,0.3158 -2.991,0.9074 -0.885,0.5916 -1.576,1.4326 -1.983,2.4164 -0.408,0.9838 -0.514,2.0664 -0.306,3.1108 0.207,1.0444 0.72,2.0038 1.473,2.7568 0.753,0.753 1.712,1.266 2.757,1.474 1.044,0.207 2.127,0.101 3.111,-0.307 0.984,-0.407 1.824,-1.097 2.416,-1.9829 0.592,-0.8854 0.907,-1.9264 0.907,-2.9913 -0.007,-1.4225 -0.576,-2.7844 -1.584,-3.789 -1.007,-1.0045 -2.37,-1.5703 -3.793,-1.574 z m -0.084,21.4734 c -1.424,0.02 -2.781,0.605 -3.775,1.624 -0.993,1.02 -1.542,2.393 -1.525,3.816 v 32.305 c -0.02,1.428 0.529,2.806 1.525,3.829 0.996,1.024 2.357,1.61 3.785,1.63 1.428,0.019 2.805,-0.529 3.829,-1.525 1.024,-0.996 1.61,-2.357 1.629,-3.785 v -32.461 c 0.016,-1.426 -0.536,-2.801 -1.534,-3.821 -0.998,-1.02 -2.359,-1.602 -3.786,-1.619 z M 9.286,192.793 h 182.427 v 44.894 c 0,8.785 -5.963,15.172 -12.779,15.172 H 22.066 c -6.817,0 -12.78,-6.387 -12.78,-15.172 z"
     fill="#01217b"
     id="path1" />
  <path
     d="m 39.257,240.926 c -0.692,-0.165 -1.268,-0.544 -1.729,-1.136 -0.428,-0.626 -0.642,-1.318 -0.642,-2.075 0,-0.593 0.23,-1.054 0.691,-1.383 0.494,-0.329 1.021,-0.395 1.581,-0.198 2.173,0.725 4.38,1.087 6.619,1.087 2.305,0 3.985,-0.708 5.038,-2.124 1.087,-1.416 1.631,-3.836 1.631,-7.261 v -19.907 c 0,-0.757 0.279,-1.416 0.839,-1.976 0.56,-0.559 1.219,-0.839 1.976,-0.839 h 0.049 c 0.758,0 1.417,0.28 1.976,0.839 0.56,0.56 0.84,1.219 0.84,1.976 v 21.389 c 0,4.314 -0.988,7.458 -2.964,9.434 -1.976,1.943 -5.104,2.915 -9.385,2.915 -2.338,0 -4.511,-0.247 -6.52,-0.741 z"
     fill="#01217b"
     id="path2" />
  <path
     d="m 77.109,225.119 c -3.754,-1.284 -6.471,-2.816 -8.151,-4.594 -1.646,-1.811 -2.469,-3.984 -2.469,-6.52 0,-2.898 0.922,-5.187 2.766,-6.866 1.844,-1.68 4.38,-2.519 7.607,-2.519 3.029,0 5.697,0.362 8.002,1.086 0.692,0.231 1.251,0.675 1.679,1.334 0.462,0.626 0.692,1.334 0.692,2.124 0,0.56 -0.247,0.988 -0.741,1.284 -0.494,0.297 -1.004,0.33 -1.531,0.099 -2.503,-1.054 -5.039,-1.581 -7.607,-1.581 -1.778,0 -3.145,0.445 -4.1,1.334 -0.955,0.889 -1.433,2.124 -1.433,3.705 0,1.284 0.445,2.453 1.334,3.507 0.889,1.021 2.206,1.828 3.952,2.42 4.347,1.449 7.36,3.063 9.039,4.841 1.713,1.778 2.569,4.034 2.569,6.767 0,3.326 -1.021,5.846 -3.063,7.558 -2.041,1.712 -5.055,2.569 -9.039,2.569 -2.602,0 -4.956,-0.395 -7.064,-1.186 -1.548,-0.626 -2.321,-1.844 -2.321,-3.655 0,-0.56 0.247,-0.972 0.741,-1.235 0.494,-0.263 0.987,-0.263 1.481,0 2.042,1.087 4.265,1.63 6.669,1.63 4.775,0 7.162,-1.893 7.162,-5.681 0,-1.448 -0.477,-2.683 -1.432,-3.704 -0.922,-1.021 -2.503,-1.927 -4.742,-2.717 z"
     fill="#01217b"
     id="path3" />
  <path
     d="m 119.179,212.622 c -1.811,-2.371 -4.396,-3.557 -7.755,-3.557 -3.359,0 -5.961,1.186 -7.805,3.557 -1.811,2.338 -2.717,5.845 -2.717,10.521 0,4.676 0.906,8.2 2.717,10.571 1.844,2.338 4.446,3.507 7.805,3.507 3.359,0 5.944,-1.169 7.755,-3.507 1.844,-2.371 2.766,-5.895 2.766,-10.571 0,-4.676 -0.922,-8.183 -2.766,-10.521 z m 3.952,24.154 c -2.865,3.261 -6.768,4.891 -11.707,4.891 -4.94,0 -8.859,-1.63 -11.757,-4.891 -2.865,-3.26 -4.297,-7.804 -4.297,-13.633 0,-5.829 1.432,-10.373 4.297,-13.633 2.898,-3.26 6.817,-4.89 11.757,-4.89 4.939,0 8.842,1.63 11.707,4.89 2.897,3.26 4.346,7.804 4.346,13.633 0,5.829 -1.449,10.373 -4.346,13.633 z"
     fill="#01217b"
     id="path4" />
  <path
     d="m 140.352,240.382 c -0.527,0.527 -1.153,0.791 -1.877,0.791 -0.725,0 -1.351,-0.264 -1.877,-0.791 -0.527,-0.527 -0.791,-1.152 -0.791,-1.877 v -30.724 c 0,-0.724 0.264,-1.35 0.791,-1.877 0.526,-0.527 1.152,-0.79 1.877,-0.79 1.745,0 3.079,0.773 4.001,2.321 l 14.028,24.55 c 0,0.033 0.033,0.049 0.099,0.049 0.033,0 0.049,-0.016 0.049,-0.049 v -24.204 c 0,-0.724 0.264,-1.35 0.791,-1.877 0.527,-0.527 1.152,-0.79 1.877,-0.79 0.724,0 1.35,0.263 1.877,0.79 0.527,0.527 0.79,1.153 0.79,1.877 v 30.724 c 0,0.725 -0.263,1.35 -0.79,1.877 -0.527,0.527 -1.153,0.791 -1.877,0.791 -1.746,0 -3.079,-0.774 -4.001,-2.322 l -14.078,-24.55 c 0,-0.033 -0.017,-0.049 -0.05,-0.049 -0.033,0 -0.049,0.016 -0.049,0.049 v 24.204 c 0,0.725 -0.263,1.35 -0.79,1.877 z"
     fill="#01217b"
     id="path5" />
</svg>
